<svg xmlns="http://www.w3.org/2000/svg" viewBox="0 0 1024 1024">
  <defs>
    <linearGradient id="bg" x1="0" y1="0" x2="1" y2="1">
      <stop offset="0%" stop-color="#2A2218"></stop>
      <stop offset="100%" stop-color="#0A0705"></stop>
    </linearGradient>
    <radialGradient id="glow" cx="50%" cy="50%" r="50%">
      <stop offset="0%" stop-color="#E8C4A3" stop-opacity="0.18"></stop>
      <stop offset="100%" stop-color="#E8C4A3" stop-opacity="0"></stop>
    </radialGradient>
  </defs>
  <rect width="1024" height="1024" rx="220" fill="url(#bg)"></rect>
  <circle cx="512" cy="512" r="380" fill="url(#glow)"></circle>
  <g transform="translate(512 512) scale(8)">
    <g stroke="#E8C4A3" stroke-width="1.4" stroke-linecap="round">
      <line x1="0.00" y1="-4.00" x2="0.00" y2="-30.00"></line><line x1="2.00" y1="-3.46" x2="15.00" y2="-25.98"></line><line x1="3.46" y1="-2.00" x2="25.98" y2="-15.00"></line><line x1="4.00" y1="0.00" x2="30.00" y2="0.00"></line><line x1="3.46" y1="2.00" x2="25.98" y2="15.00"></line><line x1="2.00" y1="3.46" x2="15.00" y2="25.98"></line><line x1="0.00" y1="4.00" x2="0.00" y2="30.00"></line><line x1="-2.00" y1="3.46" x2="-15.00" y2="25.98"></line><line x1="-3.46" y1="2.00" x2="-25.98" y2="15.00"></line><line x1="-4.00" y1="0.00" x2="-30.00" y2="0.00"></line><line x1="-3.46" y1="-2.00" x2="-25.98" y2="-15.00"></line><line x1="-2.00" y1="-3.46" x2="-15.00" y2="-25.98"></line>
    </g>
    <g fill="#E8C4A3">
      <circle cx="0.00" cy="-30.00" r="2.6"></circle><circle cx="15.00" cy="-25.98" r="2.6"></circle><circle cx="25.98" cy="-15.00" r="2.6"></circle><circle cx="30.00" cy="0.00" r="2.6"></circle><circle cx="25.98" cy="15.00" r="2.6"></circle><circle cx="15.00" cy="25.98" r="2.6"></circle><circle cx="0.00" cy="30.00" r="2.6"></circle><circle cx="-15.00" cy="25.98" r="2.6"></circle><circle cx="-25.98" cy="15.00" r="2.6"></circle><circle cx="-30.00" cy="0.00" r="2.6"></circle><circle cx="-25.98" cy="-15.00" r="2.6"></circle><circle cx="-15.00" cy="-25.98" r="2.6"></circle>
    </g>
    <g stroke="#E8C4A3" stroke-width="1.4" stroke-linecap="round" opacity="0.7">
      <line x1="1.16" y1="-4.35" x2="4.14" y2="-15.45"></line><line x1="4.35" y1="-1.16" x2="15.45" y2="-4.14"></line><line x1="3.18" y1="3.18" x2="11.31" y2="11.31"></line><line x1="-1.16" y1="4.35" x2="-4.14" y2="15.45"></line><line x1="-4.35" y1="1.16" x2="-15.45" y2="4.14"></line><line x1="-3.18" y1="-3.18" x2="-11.31" y2="-11.31"></line>
    </g>
    <circle cx="0" cy="0" r="3.5" fill="#FFF6E5"></circle>
  </g>
</svg>