<svg xmlns="http://www.w3.org/2000/svg" viewBox="0 0 100 100" width="100" height="100">
  <g stroke="#F2E9DC" stroke-width="0.5" stroke-linecap="round" fill="none" opacity="0.95">
        <line x1="50.00" y1="46.00" x2="50.00" y2="22.00"></line>
    <line x1="51.04" y1="46.14" x2="57.25" y2="22.95"></line>
    <line x1="52.00" y1="46.54" x2="64.00" y2="25.75"></line>
    <line x1="52.83" y1="47.17" x2="69.80" y2="30.20"></line>
    <line x1="53.46" y1="48.00" x2="74.25" y2="36.00"></line>
    <line x1="53.86" y1="48.96" x2="77.05" y2="42.75"></line>
    <line x1="54.00" y1="50.00" x2="78.00" y2="50.00"></line>
    <line x1="53.86" y1="51.04" x2="77.05" y2="57.25"></line>
    <line x1="53.46" y1="52.00" x2="74.25" y2="64.00"></line>
    <line x1="52.83" y1="52.83" x2="69.80" y2="69.80"></line>
    <line x1="52.00" y1="53.46" x2="64.00" y2="74.25"></line>
    <line x1="51.04" y1="53.86" x2="57.25" y2="77.05"></line>
    <line x1="50.00" y1="54.00" x2="50.00" y2="78.00"></line>
    <line x1="48.96" y1="53.86" x2="42.75" y2="77.05"></line>
    <line x1="48.00" y1="53.46" x2="36.00" y2="74.25"></line>
    <line x1="47.17" y1="52.83" x2="30.20" y2="69.80"></line>
    <line x1="46.54" y1="52.00" x2="25.75" y2="64.00"></line>
    <line x1="46.14" y1="51.04" x2="22.95" y2="57.25"></line>
    <line x1="46.00" y1="50.00" x2="22.00" y2="50.00"></line>
    <line x1="46.14" y1="48.96" x2="22.95" y2="42.75"></line>
    <line x1="46.54" y1="48.00" x2="25.75" y2="36.00"></line>
    <line x1="47.17" y1="47.17" x2="30.20" y2="30.20"></line>
    <line x1="48.00" y1="46.54" x2="36.00" y2="25.75"></line>
    <line x1="48.96" y1="46.14" x2="42.75" y2="22.95"></line>
  </g>
  <g stroke="#F2E9DC" stroke-width="0.5" stroke-linecap="round" fill="none" opacity="0.95">
        <line x1="50.60" y1="22.00" x2="49.40" y2="22.00"></line>
    <line x1="57.83" y1="23.11" x2="56.67" y2="22.80"></line>
    <line x1="64.52" y1="26.05" x2="63.48" y2="25.45"></line>
    <line x1="70.22" y1="30.63" x2="69.37" y2="29.78"></line>
    <line x1="74.55" y1="36.52" x2="73.95" y2="35.48"></line>
    <line x1="77.20" y1="43.33" x2="76.89" y2="42.17"></line>
    <line x1="78.00" y1="50.60" x2="78.00" y2="49.40"></line>
    <line x1="76.89" y1="57.83" x2="77.20" y2="56.67"></line>
    <line x1="73.95" y1="64.52" x2="74.55" y2="63.48"></line>
    <line x1="69.37" y1="70.22" x2="70.22" y2="69.37"></line>
    <line x1="63.48" y1="74.55" x2="64.52" y2="73.95"></line>
    <line x1="56.67" y1="77.20" x2="57.83" y2="76.89"></line>
    <line x1="49.40" y1="78.00" x2="50.60" y2="78.00"></line>
    <line x1="42.17" y1="76.89" x2="43.33" y2="77.20"></line>
    <line x1="35.48" y1="73.95" x2="36.52" y2="74.55"></line>
    <line x1="29.78" y1="69.37" x2="30.63" y2="70.22"></line>
    <line x1="25.45" y1="63.48" x2="26.05" y2="64.52"></line>
    <line x1="22.80" y1="56.67" x2="23.11" y2="57.83"></line>
    <line x1="22.00" y1="49.40" x2="22.00" y2="50.60"></line>
    <line x1="23.11" y1="42.17" x2="22.80" y2="43.33"></line>
    <line x1="26.05" y1="35.48" x2="25.45" y2="36.52"></line>
    <line x1="30.63" y1="29.78" x2="29.78" y2="30.63"></line>
    <line x1="36.52" y1="25.45" x2="35.48" y2="26.05"></line>
    <line x1="43.33" y1="22.80" x2="42.17" y2="23.11"></line>
  </g>
  <circle cx="50" cy="50" r="2.5" fill="none" stroke="#F2E9DC" stroke-width="0.5"></circle>
  <circle cx="50" cy="50" r="1" fill="#F2E9DC"></circle>
</svg>
