<svg xmlns="http://www.w3.org/2000/svg" viewBox="0 0 100 100" width="100" height="100">
  <g stroke="#F2E9DC" stroke-width="0.9" stroke-linecap="round">
        <line x1="50.00" y1="45.00" x2="50.00" y2="22.00"></line>
    <line x1="53.54" y1="46.46" x2="69.80" y2="30.20"></line>
    <line x1="55.00" y1="50.00" x2="78.00" y2="50.00"></line>
    <line x1="53.54" y1="53.54" x2="69.80" y2="69.80"></line>
    <line x1="50.00" y1="55.00" x2="50.00" y2="78.00"></line>
    <line x1="46.46" y1="53.54" x2="30.20" y2="69.80"></line>
    <line x1="45.00" y1="50.00" x2="22.00" y2="50.00"></line>
    <line x1="46.46" y1="46.46" x2="30.20" y2="30.20"></line>
  </g>
  <g fill="#F2E9DC">
        <circle cx="50.00" cy="22.00" r="2"></circle>
    <circle cx="69.80" cy="30.20" r="2"></circle>
    <circle cx="78.00" cy="50.00" r="2"></circle>
    <circle cx="69.80" cy="69.80" r="2"></circle>
    <circle cx="50.00" cy="78.00" r="2"></circle>
    <circle cx="30.20" cy="69.80" r="2"></circle>
    <circle cx="22.00" cy="50.00" r="2"></circle>
    <circle cx="30.20" cy="30.20" r="2"></circle>
  </g>
  <circle cx="50" cy="50" r="2" fill="#F2E9DC"></circle>
</svg>
