<svg xmlns="http://www.w3.org/2000/svg" viewBox="0 0 240 240" width="240" height="240">
  <rect width="240" height="240" fill="#14100D"></rect>
  <g transform="translate(38 28)"><g transform="rotate(18)">
      <g stroke="#E8C4A3" stroke-width="0.24" stroke-linecap="round" opacity="0.78">
        <line x1="0" y1="0" x2="0.00" y2="-6.72"></line><line x1="0" y1="0" x2="3.95" y2="-5.44"></line><line x1="0" y1="0" x2="6.39" y2="-2.08"></line><line x1="0" y1="0" x2="6.39" y2="2.08"></line><line x1="0" y1="0" x2="3.95" y2="5.44"></line><line x1="0" y1="0" x2="0.00" y2="6.72"></line><line x1="0" y1="0" x2="-3.95" y2="5.44"></line><line x1="0" y1="0" x2="-6.39" y2="2.08"></line><line x1="0" y1="0" x2="-6.39" y2="-2.08"></line><line x1="0" y1="0" x2="-3.95" y2="-5.44"></line>
      </g>
      <g fill="#E8C4A3" opacity="0.85">
        <circle cx="0.00" cy="-6.72" r="0.43"></circle><circle cx="3.95" cy="-5.44" r="0.43"></circle><circle cx="6.39" cy="-2.08" r="0.43"></circle><circle cx="6.39" cy="2.08" r="0.43"></circle><circle cx="3.95" cy="5.44" r="0.43"></circle><circle cx="0.00" cy="6.72" r="0.43"></circle><circle cx="-3.95" cy="5.44" r="0.43"></circle><circle cx="-6.39" cy="2.08" r="0.43"></circle><circle cx="-6.39" cy="-2.08" r="0.43"></circle><circle cx="-3.95" cy="-5.44" r="0.43"></circle>
      </g>
      <circle cx="0" cy="0" r="0.48" fill="#FFF6E5"></circle>
      <path d="M 0 0 Q -0.24 9.6 0.4 18.2" stroke="#E8C4A3" stroke-width="0.216" fill="none" opacity="0.55" stroke-linecap="round"></path>
    </g></g>
<g transform="translate(38 268)"><g transform="rotate(18)">
      <g stroke="#E8C4A3" stroke-width="0.24" stroke-linecap="round" opacity="0.78">
        <line x1="0" y1="0" x2="0.00" y2="-6.72"></line><line x1="0" y1="0" x2="3.95" y2="-5.44"></line><line x1="0" y1="0" x2="6.39" y2="-2.08"></line><line x1="0" y1="0" x2="6.39" y2="2.08"></line><line x1="0" y1="0" x2="3.95" y2="5.44"></line><line x1="0" y1="0" x2="0.00" y2="6.72"></line><line x1="0" y1="0" x2="-3.95" y2="5.44"></line><line x1="0" y1="0" x2="-6.39" y2="2.08"></line><line x1="0" y1="0" x2="-6.39" y2="-2.08"></line><line x1="0" y1="0" x2="-3.95" y2="-5.44"></line>
      </g>
      <g fill="#E8C4A3" opacity="0.85">
        <circle cx="0.00" cy="-6.72" r="0.43"></circle><circle cx="3.95" cy="-5.44" r="0.43"></circle><circle cx="6.39" cy="-2.08" r="0.43"></circle><circle cx="6.39" cy="2.08" r="0.43"></circle><circle cx="3.95" cy="5.44" r="0.43"></circle><circle cx="0.00" cy="6.72" r="0.43"></circle><circle cx="-3.95" cy="5.44" r="0.43"></circle><circle cx="-6.39" cy="2.08" r="0.43"></circle><circle cx="-6.39" cy="-2.08" r="0.43"></circle><circle cx="-3.95" cy="-5.44" r="0.43"></circle>
      </g>
      <circle cx="0" cy="0" r="0.48" fill="#FFF6E5"></circle>
      <path d="M 0 0 Q -0.24 9.6 0.4 18.2" stroke="#E8C4A3" stroke-width="0.216" fill="none" opacity="0.55" stroke-linecap="round"></path>
    </g></g>
<g transform="translate(278 28)"><g transform="rotate(18)">
      <g stroke="#E8C4A3" stroke-width="0.24" stroke-linecap="round" opacity="0.78">
        <line x1="0" y1="0" x2="0.00" y2="-6.72"></line><line x1="0" y1="0" x2="3.95" y2="-5.44"></line><line x1="0" y1="0" x2="6.39" y2="-2.08"></line><line x1="0" y1="0" x2="6.39" y2="2.08"></line><line x1="0" y1="0" x2="3.95" y2="5.44"></line><line x1="0" y1="0" x2="0.00" y2="6.72"></line><line x1="0" y1="0" x2="-3.95" y2="5.44"></line><line x1="0" y1="0" x2="-6.39" y2="2.08"></line><line x1="0" y1="0" x2="-6.39" y2="-2.08"></line><line x1="0" y1="0" x2="-3.95" y2="-5.44"></line>
      </g>
      <g fill="#E8C4A3" opacity="0.85">
        <circle cx="0.00" cy="-6.72" r="0.43"></circle><circle cx="3.95" cy="-5.44" r="0.43"></circle><circle cx="6.39" cy="-2.08" r="0.43"></circle><circle cx="6.39" cy="2.08" r="0.43"></circle><circle cx="3.95" cy="5.44" r="0.43"></circle><circle cx="0.00" cy="6.72" r="0.43"></circle><circle cx="-3.95" cy="5.44" r="0.43"></circle><circle cx="-6.39" cy="2.08" r="0.43"></circle><circle cx="-6.39" cy="-2.08" r="0.43"></circle><circle cx="-3.95" cy="-5.44" r="0.43"></circle>
      </g>
      <circle cx="0" cy="0" r="0.48" fill="#FFF6E5"></circle>
      <path d="M 0 0 Q -0.24 9.6 0.4 18.2" stroke="#E8C4A3" stroke-width="0.216" fill="none" opacity="0.55" stroke-linecap="round"></path>
    </g></g>
<g transform="translate(278 268)"><g transform="rotate(18)">
      <g stroke="#E8C4A3" stroke-width="0.24" stroke-linecap="round" opacity="0.78">
        <line x1="0" y1="0" x2="0.00" y2="-6.72"></line><line x1="0" y1="0" x2="3.95" y2="-5.44"></line><line x1="0" y1="0" x2="6.39" y2="-2.08"></line><line x1="0" y1="0" x2="6.39" y2="2.08"></line><line x1="0" y1="0" x2="3.95" y2="5.44"></line><line x1="0" y1="0" x2="0.00" y2="6.72"></line><line x1="0" y1="0" x2="-3.95" y2="5.44"></line><line x1="0" y1="0" x2="-6.39" y2="2.08"></line><line x1="0" y1="0" x2="-6.39" y2="-2.08"></line><line x1="0" y1="0" x2="-3.95" y2="-5.44"></line>
      </g>
      <g fill="#E8C4A3" opacity="0.85">
        <circle cx="0.00" cy="-6.72" r="0.43"></circle><circle cx="3.95" cy="-5.44" r="0.43"></circle><circle cx="6.39" cy="-2.08" r="0.43"></circle><circle cx="6.39" cy="2.08" r="0.43"></circle><circle cx="3.95" cy="5.44" r="0.43"></circle><circle cx="0.00" cy="6.72" r="0.43"></circle><circle cx="-3.95" cy="5.44" r="0.43"></circle><circle cx="-6.39" cy="2.08" r="0.43"></circle><circle cx="-6.39" cy="-2.08" r="0.43"></circle><circle cx="-3.95" cy="-5.44" r="0.43"></circle>
      </g>
      <circle cx="0" cy="0" r="0.48" fill="#FFF6E5"></circle>
      <path d="M 0 0 Q -0.24 9.6 0.4 18.2" stroke="#E8C4A3" stroke-width="0.216" fill="none" opacity="0.55" stroke-linecap="round"></path>
    </g></g>
<g transform="translate(168 50)"><g transform="rotate(-22)">
      <g stroke="#E8C4A3" stroke-width="0.31" stroke-linecap="round" opacity="0.78">
        <line x1="0" y1="0" x2="0.00" y2="-8.68"></line><line x1="0" y1="0" x2="5.10" y2="-7.02"></line><line x1="0" y1="0" x2="8.26" y2="-2.68"></line><line x1="0" y1="0" x2="8.26" y2="2.68"></line><line x1="0" y1="0" x2="5.10" y2="7.02"></line><line x1="0" y1="0" x2="0.00" y2="8.68"></line><line x1="0" y1="0" x2="-5.10" y2="7.02"></line><line x1="0" y1="0" x2="-8.26" y2="2.68"></line><line x1="0" y1="0" x2="-8.26" y2="-2.68"></line><line x1="0" y1="0" x2="-5.10" y2="-7.02"></line>
      </g>
      <g fill="#E8C4A3" opacity="0.85">
        <circle cx="0.00" cy="-8.68" r="0.56"></circle><circle cx="5.10" cy="-7.02" r="0.56"></circle><circle cx="8.26" cy="-2.68" r="0.56"></circle><circle cx="8.26" cy="2.68" r="0.56"></circle><circle cx="5.10" cy="7.02" r="0.56"></circle><circle cx="0.00" cy="8.68" r="0.56"></circle><circle cx="-5.10" cy="7.02" r="0.56"></circle><circle cx="-8.26" cy="2.68" r="0.56"></circle><circle cx="-8.26" cy="-2.68" r="0.56"></circle><circle cx="-5.10" cy="-7.02" r="0.56"></circle>
      </g>
      <circle cx="0" cy="0" r="0.62" fill="#FFF6E5"></circle>
      <path d="M 0 0 Q -0.31 12.4 0.5 23.6" stroke="#E8C4A3" stroke-width="0.279" fill="none" opacity="0.55" stroke-linecap="round"></path>
    </g></g>
<g transform="translate(168 290)"><g transform="rotate(-22)">
      <g stroke="#E8C4A3" stroke-width="0.31" stroke-linecap="round" opacity="0.78">
        <line x1="0" y1="0" x2="0.00" y2="-8.68"></line><line x1="0" y1="0" x2="5.10" y2="-7.02"></line><line x1="0" y1="0" x2="8.26" y2="-2.68"></line><line x1="0" y1="0" x2="8.26" y2="2.68"></line><line x1="0" y1="0" x2="5.10" y2="7.02"></line><line x1="0" y1="0" x2="0.00" y2="8.68"></line><line x1="0" y1="0" x2="-5.10" y2="7.02"></line><line x1="0" y1="0" x2="-8.26" y2="2.68"></line><line x1="0" y1="0" x2="-8.26" y2="-2.68"></line><line x1="0" y1="0" x2="-5.10" y2="-7.02"></line>
      </g>
      <g fill="#E8C4A3" opacity="0.85">
        <circle cx="0.00" cy="-8.68" r="0.56"></circle><circle cx="5.10" cy="-7.02" r="0.56"></circle><circle cx="8.26" cy="-2.68" r="0.56"></circle><circle cx="8.26" cy="2.68" r="0.56"></circle><circle cx="5.10" cy="7.02" r="0.56"></circle><circle cx="0.00" cy="8.68" r="0.56"></circle><circle cx="-5.10" cy="7.02" r="0.56"></circle><circle cx="-8.26" cy="2.68" r="0.56"></circle><circle cx="-8.26" cy="-2.68" r="0.56"></circle><circle cx="-5.10" cy="-7.02" r="0.56"></circle>
      </g>
      <circle cx="0" cy="0" r="0.62" fill="#FFF6E5"></circle>
      <path d="M 0 0 Q -0.31 12.4 0.5 23.6" stroke="#E8C4A3" stroke-width="0.279" fill="none" opacity="0.55" stroke-linecap="round"></path>
    </g></g>
<g transform="translate(92 96)"><g transform="rotate(60)">
      <g stroke="#E8C4A3" stroke-width="0.2" stroke-linecap="round" opacity="0.78">
        <line x1="0" y1="0" x2="0.00" y2="-5.60"></line><line x1="0" y1="0" x2="3.29" y2="-4.53"></line><line x1="0" y1="0" x2="5.33" y2="-1.73"></line><line x1="0" y1="0" x2="5.33" y2="1.73"></line><line x1="0" y1="0" x2="3.29" y2="4.53"></line><line x1="0" y1="0" x2="0.00" y2="5.60"></line><line x1="0" y1="0" x2="-3.29" y2="4.53"></line><line x1="0" y1="0" x2="-5.33" y2="1.73"></line><line x1="0" y1="0" x2="-5.33" y2="-1.73"></line><line x1="0" y1="0" x2="-3.29" y2="-4.53"></line>
      </g>
      <g fill="#E8C4A3" opacity="0.85">
        <circle cx="0.00" cy="-5.60" r="0.36"></circle><circle cx="3.29" cy="-4.53" r="0.36"></circle><circle cx="5.33" cy="-1.73" r="0.36"></circle><circle cx="5.33" cy="1.73" r="0.36"></circle><circle cx="3.29" cy="4.53" r="0.36"></circle><circle cx="0.00" cy="5.60" r="0.36"></circle><circle cx="-3.29" cy="4.53" r="0.36"></circle><circle cx="-5.33" cy="1.73" r="0.36"></circle><circle cx="-5.33" cy="-1.73" r="0.36"></circle><circle cx="-3.29" cy="-4.53" r="0.36"></circle>
      </g>
      <circle cx="0" cy="0" r="0.40" fill="#FFF6E5"></circle>
      <path d="M 0 0 Q -0.2 8.0 0.3 15.2" stroke="#E8C4A3" stroke-width="0.18000000000000002" fill="none" opacity="0.55" stroke-linecap="round"></path>
    </g></g>
<g transform="translate(-40 142)"><g transform="rotate(8)">
      <g stroke="#E8C4A3" stroke-width="0.275" stroke-linecap="round" opacity="0.78">
        <line x1="0" y1="0" x2="0.00" y2="-7.70"></line><line x1="0" y1="0" x2="4.53" y2="-6.23"></line><line x1="0" y1="0" x2="7.32" y2="-2.38"></line><line x1="0" y1="0" x2="7.32" y2="2.38"></line><line x1="0" y1="0" x2="4.53" y2="6.23"></line><line x1="0" y1="0" x2="0.00" y2="7.70"></line><line x1="0" y1="0" x2="-4.53" y2="6.23"></line><line x1="0" y1="0" x2="-7.32" y2="2.38"></line><line x1="0" y1="0" x2="-7.32" y2="-2.38"></line><line x1="0" y1="0" x2="-4.53" y2="-6.23"></line>
      </g>
      <g fill="#E8C4A3" opacity="0.85">
        <circle cx="0.00" cy="-7.70" r="0.50"></circle><circle cx="4.53" cy="-6.23" r="0.50"></circle><circle cx="7.32" cy="-2.38" r="0.50"></circle><circle cx="7.32" cy="2.38" r="0.50"></circle><circle cx="4.53" cy="6.23" r="0.50"></circle><circle cx="0.00" cy="7.70" r="0.50"></circle><circle cx="-4.53" cy="6.23" r="0.50"></circle><circle cx="-7.32" cy="2.38" r="0.50"></circle><circle cx="-7.32" cy="-2.38" r="0.50"></circle><circle cx="-4.53" cy="-6.23" r="0.50"></circle>
      </g>
      <circle cx="0" cy="0" r="0.55" fill="#FFF6E5"></circle>
      <path d="M 0 0 Q -0.275 11.0 0.4 20.9" stroke="#E8C4A3" stroke-width="0.24750000000000003" fill="none" opacity="0.55" stroke-linecap="round"></path>
    </g></g>
<g transform="translate(200 142)"><g transform="rotate(8)">
      <g stroke="#E8C4A3" stroke-width="0.275" stroke-linecap="round" opacity="0.78">
        <line x1="0" y1="0" x2="0.00" y2="-7.70"></line><line x1="0" y1="0" x2="4.53" y2="-6.23"></line><line x1="0" y1="0" x2="7.32" y2="-2.38"></line><line x1="0" y1="0" x2="7.32" y2="2.38"></line><line x1="0" y1="0" x2="4.53" y2="6.23"></line><line x1="0" y1="0" x2="0.00" y2="7.70"></line><line x1="0" y1="0" x2="-4.53" y2="6.23"></line><line x1="0" y1="0" x2="-7.32" y2="2.38"></line><line x1="0" y1="0" x2="-7.32" y2="-2.38"></line><line x1="0" y1="0" x2="-4.53" y2="-6.23"></line>
      </g>
      <g fill="#E8C4A3" opacity="0.85">
        <circle cx="0.00" cy="-7.70" r="0.50"></circle><circle cx="4.53" cy="-6.23" r="0.50"></circle><circle cx="7.32" cy="-2.38" r="0.50"></circle><circle cx="7.32" cy="2.38" r="0.50"></circle><circle cx="4.53" cy="6.23" r="0.50"></circle><circle cx="0.00" cy="7.70" r="0.50"></circle><circle cx="-4.53" cy="6.23" r="0.50"></circle><circle cx="-7.32" cy="2.38" r="0.50"></circle><circle cx="-7.32" cy="-2.38" r="0.50"></circle><circle cx="-4.53" cy="-6.23" r="0.50"></circle>
      </g>
      <circle cx="0" cy="0" r="0.55" fill="#FFF6E5"></circle>
      <path d="M 0 0 Q -0.275 11.0 0.4 20.9" stroke="#E8C4A3" stroke-width="0.24750000000000003" fill="none" opacity="0.55" stroke-linecap="round"></path>
    </g></g>
<g transform="translate(30 180)"><g transform="rotate(-38)">
      <g stroke="#E8C4A3" stroke-width="0.25" stroke-linecap="round" opacity="0.78">
        <line x1="0" y1="0" x2="0.00" y2="-7.00"></line><line x1="0" y1="0" x2="4.11" y2="-5.66"></line><line x1="0" y1="0" x2="6.66" y2="-2.16"></line><line x1="0" y1="0" x2="6.66" y2="2.16"></line><line x1="0" y1="0" x2="4.11" y2="5.66"></line><line x1="0" y1="0" x2="0.00" y2="7.00"></line><line x1="0" y1="0" x2="-4.11" y2="5.66"></line><line x1="0" y1="0" x2="-6.66" y2="2.16"></line><line x1="0" y1="0" x2="-6.66" y2="-2.16"></line><line x1="0" y1="0" x2="-4.11" y2="-5.66"></line>
      </g>
      <g fill="#E8C4A3" opacity="0.85">
        <circle cx="0.00" cy="-7.00" r="0.45"></circle><circle cx="4.11" cy="-5.66" r="0.45"></circle><circle cx="6.66" cy="-2.16" r="0.45"></circle><circle cx="6.66" cy="2.16" r="0.45"></circle><circle cx="4.11" cy="5.66" r="0.45"></circle><circle cx="0.00" cy="7.00" r="0.45"></circle><circle cx="-4.11" cy="5.66" r="0.45"></circle><circle cx="-6.66" cy="2.16" r="0.45"></circle><circle cx="-6.66" cy="-2.16" r="0.45"></circle><circle cx="-4.11" cy="-5.66" r="0.45"></circle>
      </g>
      <circle cx="0" cy="0" r="0.50" fill="#FFF6E5"></circle>
      <path d="M 0 0 Q -0.25 10.0 0.4 19.0" stroke="#E8C4A3" stroke-width="0.225" fill="none" opacity="0.55" stroke-linecap="round"></path>
    </g></g>
<g transform="translate(270 180)"><g transform="rotate(-38)">
      <g stroke="#E8C4A3" stroke-width="0.25" stroke-linecap="round" opacity="0.78">
        <line x1="0" y1="0" x2="0.00" y2="-7.00"></line><line x1="0" y1="0" x2="4.11" y2="-5.66"></line><line x1="0" y1="0" x2="6.66" y2="-2.16"></line><line x1="0" y1="0" x2="6.66" y2="2.16"></line><line x1="0" y1="0" x2="4.11" y2="5.66"></line><line x1="0" y1="0" x2="0.00" y2="7.00"></line><line x1="0" y1="0" x2="-4.11" y2="5.66"></line><line x1="0" y1="0" x2="-6.66" y2="2.16"></line><line x1="0" y1="0" x2="-6.66" y2="-2.16"></line><line x1="0" y1="0" x2="-4.11" y2="-5.66"></line>
      </g>
      <g fill="#E8C4A3" opacity="0.85">
        <circle cx="0.00" cy="-7.00" r="0.45"></circle><circle cx="4.11" cy="-5.66" r="0.45"></circle><circle cx="6.66" cy="-2.16" r="0.45"></circle><circle cx="6.66" cy="2.16" r="0.45"></circle><circle cx="4.11" cy="5.66" r="0.45"></circle><circle cx="0.00" cy="7.00" r="0.45"></circle><circle cx="-4.11" cy="5.66" r="0.45"></circle><circle cx="-6.66" cy="2.16" r="0.45"></circle><circle cx="-6.66" cy="-2.16" r="0.45"></circle><circle cx="-4.11" cy="-5.66" r="0.45"></circle>
      </g>
      <circle cx="0" cy="0" r="0.50" fill="#FFF6E5"></circle>
      <path d="M 0 0 Q -0.25 10.0 0.4 19.0" stroke="#E8C4A3" stroke-width="0.225" fill="none" opacity="0.55" stroke-linecap="round"></path>
    </g></g>
<g transform="translate(130 -44)"><g transform="rotate(28)">
      <g stroke="#E8C4A3" stroke-width="0.21" stroke-linecap="round" opacity="0.78">
        <line x1="0" y1="0" x2="0.00" y2="-5.88"></line><line x1="0" y1="0" x2="3.46" y2="-4.76"></line><line x1="0" y1="0" x2="5.59" y2="-1.82"></line><line x1="0" y1="0" x2="5.59" y2="1.82"></line><line x1="0" y1="0" x2="3.46" y2="4.76"></line><line x1="0" y1="0" x2="0.00" y2="5.88"></line><line x1="0" y1="0" x2="-3.46" y2="4.76"></line><line x1="0" y1="0" x2="-5.59" y2="1.82"></line><line x1="0" y1="0" x2="-5.59" y2="-1.82"></line><line x1="0" y1="0" x2="-3.46" y2="-4.76"></line>
      </g>
      <g fill="#E8C4A3" opacity="0.85">
        <circle cx="0.00" cy="-5.88" r="0.38"></circle><circle cx="3.46" cy="-4.76" r="0.38"></circle><circle cx="5.59" cy="-1.82" r="0.38"></circle><circle cx="5.59" cy="1.82" r="0.38"></circle><circle cx="3.46" cy="4.76" r="0.38"></circle><circle cx="0.00" cy="5.88" r="0.38"></circle><circle cx="-3.46" cy="4.76" r="0.38"></circle><circle cx="-5.59" cy="1.82" r="0.38"></circle><circle cx="-5.59" cy="-1.82" r="0.38"></circle><circle cx="-3.46" cy="-4.76" r="0.38"></circle>
      </g>
      <circle cx="0" cy="0" r="0.42" fill="#FFF6E5"></circle>
      <path d="M 0 0 Q -0.21 8.4 0.3 16.0" stroke="#E8C4A3" stroke-width="0.189" fill="none" opacity="0.55" stroke-linecap="round"></path>
    </g></g>
<g transform="translate(130 196)"><g transform="rotate(28)">
      <g stroke="#E8C4A3" stroke-width="0.21" stroke-linecap="round" opacity="0.78">
        <line x1="0" y1="0" x2="0.00" y2="-5.88"></line><line x1="0" y1="0" x2="3.46" y2="-4.76"></line><line x1="0" y1="0" x2="5.59" y2="-1.82"></line><line x1="0" y1="0" x2="5.59" y2="1.82"></line><line x1="0" y1="0" x2="3.46" y2="4.76"></line><line x1="0" y1="0" x2="0.00" y2="5.88"></line><line x1="0" y1="0" x2="-3.46" y2="4.76"></line><line x1="0" y1="0" x2="-5.59" y2="1.82"></line><line x1="0" y1="0" x2="-5.59" y2="-1.82"></line><line x1="0" y1="0" x2="-3.46" y2="-4.76"></line>
      </g>
      <g fill="#E8C4A3" opacity="0.85">
        <circle cx="0.00" cy="-5.88" r="0.38"></circle><circle cx="3.46" cy="-4.76" r="0.38"></circle><circle cx="5.59" cy="-1.82" r="0.38"></circle><circle cx="5.59" cy="1.82" r="0.38"></circle><circle cx="3.46" cy="4.76" r="0.38"></circle><circle cx="0.00" cy="5.88" r="0.38"></circle><circle cx="-3.46" cy="4.76" r="0.38"></circle><circle cx="-5.59" cy="1.82" r="0.38"></circle><circle cx="-5.59" cy="-1.82" r="0.38"></circle><circle cx="-3.46" cy="-4.76" r="0.38"></circle>
      </g>
      <circle cx="0" cy="0" r="0.42" fill="#FFF6E5"></circle>
      <path d="M 0 0 Q -0.21 8.4 0.3 16.0" stroke="#E8C4A3" stroke-width="0.189" fill="none" opacity="0.55" stroke-linecap="round"></path>
    </g></g>
<g transform="translate(-20 -24)"><g transform="rotate(-14)">
      <g stroke="#E8C4A3" stroke-width="0.18" stroke-linecap="round" opacity="0.78">
        <line x1="0" y1="0" x2="0.00" y2="-5.04"></line><line x1="0" y1="0" x2="2.96" y2="-4.08"></line><line x1="0" y1="0" x2="4.79" y2="-1.56"></line><line x1="0" y1="0" x2="4.79" y2="1.56"></line><line x1="0" y1="0" x2="2.96" y2="4.08"></line><line x1="0" y1="0" x2="0.00" y2="5.04"></line><line x1="0" y1="0" x2="-2.96" y2="4.08"></line><line x1="0" y1="0" x2="-4.79" y2="1.56"></line><line x1="0" y1="0" x2="-4.79" y2="-1.56"></line><line x1="0" y1="0" x2="-2.96" y2="-4.08"></line>
      </g>
      <g fill="#E8C4A3" opacity="0.85">
        <circle cx="0.00" cy="-5.04" r="0.32"></circle><circle cx="2.96" cy="-4.08" r="0.32"></circle><circle cx="4.79" cy="-1.56" r="0.32"></circle><circle cx="4.79" cy="1.56" r="0.32"></circle><circle cx="2.96" cy="4.08" r="0.32"></circle><circle cx="0.00" cy="5.04" r="0.32"></circle><circle cx="-2.96" cy="4.08" r="0.32"></circle><circle cx="-4.79" cy="1.56" r="0.32"></circle><circle cx="-4.79" cy="-1.56" r="0.32"></circle><circle cx="-2.96" cy="-4.08" r="0.32"></circle>
      </g>
      <circle cx="0" cy="0" r="0.36" fill="#FFF6E5"></circle>
      <path d="M 0 0 Q -0.18 7.2 0.3 13.7" stroke="#E8C4A3" stroke-width="0.162" fill="none" opacity="0.55" stroke-linecap="round"></path>
    </g></g>
<g transform="translate(-20 216)"><g transform="rotate(-14)">
      <g stroke="#E8C4A3" stroke-width="0.18" stroke-linecap="round" opacity="0.78">
        <line x1="0" y1="0" x2="0.00" y2="-5.04"></line><line x1="0" y1="0" x2="2.96" y2="-4.08"></line><line x1="0" y1="0" x2="4.79" y2="-1.56"></line><line x1="0" y1="0" x2="4.79" y2="1.56"></line><line x1="0" y1="0" x2="2.96" y2="4.08"></line><line x1="0" y1="0" x2="0.00" y2="5.04"></line><line x1="0" y1="0" x2="-2.96" y2="4.08"></line><line x1="0" y1="0" x2="-4.79" y2="1.56"></line><line x1="0" y1="0" x2="-4.79" y2="-1.56"></line><line x1="0" y1="0" x2="-2.96" y2="-4.08"></line>
      </g>
      <g fill="#E8C4A3" opacity="0.85">
        <circle cx="0.00" cy="-5.04" r="0.32"></circle><circle cx="2.96" cy="-4.08" r="0.32"></circle><circle cx="4.79" cy="-1.56" r="0.32"></circle><circle cx="4.79" cy="1.56" r="0.32"></circle><circle cx="2.96" cy="4.08" r="0.32"></circle><circle cx="0.00" cy="5.04" r="0.32"></circle><circle cx="-2.96" cy="4.08" r="0.32"></circle><circle cx="-4.79" cy="1.56" r="0.32"></circle><circle cx="-4.79" cy="-1.56" r="0.32"></circle><circle cx="-2.96" cy="-4.08" r="0.32"></circle>
      </g>
      <circle cx="0" cy="0" r="0.36" fill="#FFF6E5"></circle>
      <path d="M 0 0 Q -0.18 7.2 0.3 13.7" stroke="#E8C4A3" stroke-width="0.162" fill="none" opacity="0.55" stroke-linecap="round"></path>
    </g></g>
<g transform="translate(220 -24)"><g transform="rotate(-14)">
      <g stroke="#E8C4A3" stroke-width="0.18" stroke-linecap="round" opacity="0.78">
        <line x1="0" y1="0" x2="0.00" y2="-5.04"></line><line x1="0" y1="0" x2="2.96" y2="-4.08"></line><line x1="0" y1="0" x2="4.79" y2="-1.56"></line><line x1="0" y1="0" x2="4.79" y2="1.56"></line><line x1="0" y1="0" x2="2.96" y2="4.08"></line><line x1="0" y1="0" x2="0.00" y2="5.04"></line><line x1="0" y1="0" x2="-2.96" y2="4.08"></line><line x1="0" y1="0" x2="-4.79" y2="1.56"></line><line x1="0" y1="0" x2="-4.79" y2="-1.56"></line><line x1="0" y1="0" x2="-2.96" y2="-4.08"></line>
      </g>
      <g fill="#E8C4A3" opacity="0.85">
        <circle cx="0.00" cy="-5.04" r="0.32"></circle><circle cx="2.96" cy="-4.08" r="0.32"></circle><circle cx="4.79" cy="-1.56" r="0.32"></circle><circle cx="4.79" cy="1.56" r="0.32"></circle><circle cx="2.96" cy="4.08" r="0.32"></circle><circle cx="0.00" cy="5.04" r="0.32"></circle><circle cx="-2.96" cy="4.08" r="0.32"></circle><circle cx="-4.79" cy="1.56" r="0.32"></circle><circle cx="-4.79" cy="-1.56" r="0.32"></circle><circle cx="-2.96" cy="-4.08" r="0.32"></circle>
      </g>
      <circle cx="0" cy="0" r="0.36" fill="#FFF6E5"></circle>
      <path d="M 0 0 Q -0.18 7.2 0.3 13.7" stroke="#E8C4A3" stroke-width="0.162" fill="none" opacity="0.55" stroke-linecap="round"></path>
    </g></g>
<g transform="translate(220 216)"><g transform="rotate(-14)">
      <g stroke="#E8C4A3" stroke-width="0.18" stroke-linecap="round" opacity="0.78">
        <line x1="0" y1="0" x2="0.00" y2="-5.04"></line><line x1="0" y1="0" x2="2.96" y2="-4.08"></line><line x1="0" y1="0" x2="4.79" y2="-1.56"></line><line x1="0" y1="0" x2="4.79" y2="1.56"></line><line x1="0" y1="0" x2="2.96" y2="4.08"></line><line x1="0" y1="0" x2="0.00" y2="5.04"></line><line x1="0" y1="0" x2="-2.96" y2="4.08"></line><line x1="0" y1="0" x2="-4.79" y2="1.56"></line><line x1="0" y1="0" x2="-4.79" y2="-1.56"></line><line x1="0" y1="0" x2="-2.96" y2="-4.08"></line>
      </g>
      <g fill="#E8C4A3" opacity="0.85">
        <circle cx="0.00" cy="-5.04" r="0.32"></circle><circle cx="2.96" cy="-4.08" r="0.32"></circle><circle cx="4.79" cy="-1.56" r="0.32"></circle><circle cx="4.79" cy="1.56" r="0.32"></circle><circle cx="2.96" cy="4.08" r="0.32"></circle><circle cx="0.00" cy="5.04" r="0.32"></circle><circle cx="-2.96" cy="4.08" r="0.32"></circle><circle cx="-4.79" cy="1.56" r="0.32"></circle><circle cx="-4.79" cy="-1.56" r="0.32"></circle><circle cx="-2.96" cy="-4.08" r="0.32"></circle>
      </g>
      <circle cx="0" cy="0" r="0.36" fill="#FFF6E5"></circle>
      <path d="M 0 0 Q -0.18 7.2 0.3 13.7" stroke="#E8C4A3" stroke-width="0.162" fill="none" opacity="0.55" stroke-linecap="round"></path>
    </g></g>
<g transform="translate(60 130)"><g transform="rotate(92)">
      <g stroke="#E8C4A3" stroke-width="0.16" stroke-linecap="round" opacity="0.78">
        <line x1="0" y1="0" x2="0.00" y2="-4.48"></line><line x1="0" y1="0" x2="2.63" y2="-3.62"></line><line x1="0" y1="0" x2="4.26" y2="-1.38"></line><line x1="0" y1="0" x2="4.26" y2="1.38"></line><line x1="0" y1="0" x2="2.63" y2="3.62"></line><line x1="0" y1="0" x2="0.00" y2="4.48"></line><line x1="0" y1="0" x2="-2.63" y2="3.62"></line><line x1="0" y1="0" x2="-4.26" y2="1.38"></line><line x1="0" y1="0" x2="-4.26" y2="-1.38"></line><line x1="0" y1="0" x2="-2.63" y2="-3.62"></line>
      </g>
      <g fill="#E8C4A3" opacity="0.85">
        <circle cx="0.00" cy="-4.48" r="0.29"></circle><circle cx="2.63" cy="-3.62" r="0.29"></circle><circle cx="4.26" cy="-1.38" r="0.29"></circle><circle cx="4.26" cy="1.38" r="0.29"></circle><circle cx="2.63" cy="3.62" r="0.29"></circle><circle cx="0.00" cy="4.48" r="0.29"></circle><circle cx="-2.63" cy="3.62" r="0.29"></circle><circle cx="-4.26" cy="1.38" r="0.29"></circle><circle cx="-4.26" cy="-1.38" r="0.29"></circle><circle cx="-2.63" cy="-3.62" r="0.29"></circle>
      </g>
      <circle cx="0" cy="0" r="0.32" fill="#FFF6E5"></circle>
      <path d="M 0 0 Q -0.16 6.4 0.3 12.2" stroke="#E8C4A3" stroke-width="0.14400000000000002" fill="none" opacity="0.55" stroke-linecap="round"></path>
    </g></g>

</svg>