<svg xmlns="http://www.w3.org/2000/svg" viewBox="0 0 100 100">
  
  <circle cx="50" cy="56" r="2" fill="#724B39"></circle>
  
  <line x1="50.4" y1="56.0" x2="53.0" y2="56.0" stroke="#724B39" stroke-width="0.45" opacity="0.55"></line>
    <circle cx="53.0" cy="56.0" r="3.44" fill="#CF9D7B" opacity="0.85"></circle>
  <line x1="49.5" y1="56.4" x2="46.2" y2="59.5" stroke="#724B39" stroke-width="0.45" opacity="0.55"></line>
    <circle cx="46.2" cy="59.5" r="3.32" fill="#CF9D7B" opacity="0.85"></circle>
  <line x1="50.1" y1="55.2" x2="50.6" y2="49.3" stroke="#724B39" stroke-width="0.45" opacity="0.55"></line>
    <circle cx="50.6" cy="49.3" r="3.24" fill="#CF9D7B" opacity="0.85"></circle>
  <line x1="50.6" y1="56.8" x2="54.8" y2="62.3" stroke="#724B39" stroke-width="0.45" opacity="0.55"></line>
    <circle cx="54.8" cy="62.3" r="3.18" fill="#CF9D7B" opacity="0.85"></circle>
  <line x1="48.9" y1="55.8" x2="41.1" y2="54.4" stroke="#724B39" stroke-width="0.45" opacity="0.55"></line>
    <circle cx="41.1" cy="54.4" r="3.12" fill="#CF9D7B" opacity="0.85"></circle>
  <line x1="51.0" y1="55.4" x2="58.4" y2="50.7" stroke="#724B39" stroke-width="0.45" opacity="0.55"></line>
    <circle cx="58.4" cy="50.7" r="3.07" fill="#CF9D7B" opacity="0.85"></circle>
  <line x1="49.7" y1="57.3" x2="47.2" y2="66.4" stroke="#724B39" stroke-width="0.45" opacity="0.55"></line>
    <circle cx="47.2" cy="66.4" r="3.02" fill="#CF9D7B" opacity="0.85"></circle>
  <line x1="49.4" y1="54.8" x2="44.6" y2="45.7" stroke="#724B39" stroke-width="0.45" opacity="0.55"></line>
    <circle cx="44.6" cy="45.7" r="2.98" fill="#CF9D7B" opacity="0.85"></circle>
  <line x1="51.4" y1="56.5" x2="61.6" y2="60.2" stroke="#724B39" stroke-width="0.45" opacity="0.55"></line>
    <circle cx="61.6" cy="60.2" r="2.94" fill="#CF9D7B" opacity="0.85"></circle>
  <line x1="48.5" y1="56.6" x2="37.9" y2="61.0" stroke="#724B39" stroke-width="0.45" opacity="0.55"></line>
    <circle cx="37.9" cy="61.0" r="2.90" fill="#CF9D7B" opacity="0.85"></circle>
  <line x1="50.7" y1="54.5" x2="55.8" y2="43.5" stroke="#724B39" stroke-width="0.45" opacity="0.55"></line>
    <circle cx="55.8" cy="43.5" r="2.87" fill="#CF9D7B" opacity="0.85"></circle>
  <line x1="50.5" y1="57.6" x2="54.3" y2="69.7" stroke="#724B39" stroke-width="0.45" opacity="0.55"></line>
    <circle cx="54.3" cy="69.7" r="2.83" fill="#CF9D7B" opacity="0.85"></circle>
  <line x1="48.4" y1="55.1" x2="37.0" y2="48.5" stroke="#724B39" stroke-width="0.45" opacity="0.55"></line>
    <circle cx="37.0" cy="48.5" r="2.80" fill="#CF9D7B" opacity="0.85"></circle>
  <line x1="51.8" y1="55.6" x2="65.2" y2="52.7" stroke="#724B39" stroke-width="0.45" opacity="0.55"></line>
    <circle cx="65.2" cy="52.7" r="2.77" fill="#CF9D7B" opacity="0.85"></circle>
  <line x1="48.9" y1="57.6" x2="40.7" y2="69.2" stroke="#724B39" stroke-width="0.45" opacity="0.55"></line>
    <circle cx="40.7" cy="69.2" r="2.74" fill="#CF9D7B" opacity="0.85"></circle>
  <line x1="49.7" y1="54.0" x2="47.9" y2="39.4" stroke="#724B39" stroke-width="0.45" opacity="0.55"></line>
    <circle cx="47.9" cy="39.4" r="2.71" fill="#CF9D7B" opacity="0.85"></circle>
  <line x1="51.6" y1="57.3" x2="63.2" y2="67.1" stroke="#724B39" stroke-width="0.45" opacity="0.55"></line>
    <circle cx="63.2" cy="67.1" r="2.68" fill="#CF9D7B" opacity="0.85"></circle>
  <line x1="47.9" y1="56.1" x2="32.3" y2="56.7" stroke="#724B39" stroke-width="0.45" opacity="0.55"></line>
    <circle cx="32.3" cy="56.7" r="2.65" fill="#CF9D7B" opacity="0.85"></circle>
  <line x1="51.6" y1="54.5" x2="62.9" y2="43.1" stroke="#724B39" stroke-width="0.45" opacity="0.55"></line>
    <circle cx="62.9" cy="43.1" r="2.63" fill="#CF9D7B" opacity="0.85"></circle>
  <line x1="49.9" y1="58.2" x2="49.1" y2="74.7" stroke="#724B39" stroke-width="0.45" opacity="0.55"></line>
    <circle cx="49.1" cy="74.7" r="2.60" fill="#CF9D7B" opacity="0.85"></circle>
  <line x1="48.5" y1="54.2" x2="37.7" y2="41.3" stroke="#724B39" stroke-width="0.45" opacity="0.55"></line>
    <circle cx="37.7" cy="41.3" r="2.58" fill="#CF9D7B" opacity="0.85"></circle>
  <line x1="52.3" y1="56.3" x2="69.5" y2="58.6" stroke="#724B39" stroke-width="0.45" opacity="0.55"></line>
    <circle cx="69.5" cy="58.6" r="2.55" fill="#CF9D7B" opacity="0.85"></circle>
  <line x1="48.0" y1="57.4" x2="33.5" y2="67.5" stroke="#724B39" stroke-width="0.45" opacity="0.55"></line>
    <circle cx="33.5" cy="67.5" r="2.53" fill="#CF9D7B" opacity="0.85"></circle>
  <line x1="50.5" y1="53.6" x2="54.5" y2="35.9" stroke="#724B39" stroke-width="0.45" opacity="0.55"></line>
    <circle cx="54.5" cy="35.9" r="2.50" fill="#CF9D7B" opacity="0.85"></circle>
  <line x1="51.3" y1="58.2" x2="60.4" y2="74.2" stroke="#724B39" stroke-width="0.45" opacity="0.55"></line>
    <circle cx="60.4" cy="74.2" r="2.48" fill="#CF9D7B" opacity="0.85"></circle>
  <line x1="47.6" y1="55.2" x2="29.6" y2="49.5" stroke="#724B39" stroke-width="0.45" opacity="0.55"></line>
    <circle cx="29.6" cy="49.5" r="2.46" fill="#CF9D7B" opacity="0.85"></circle>
  <line x1="52.4" y1="54.9" x2="69.8" y2="46.8" stroke="#724B39" stroke-width="0.45" opacity="0.55"></line>
    <circle cx="69.8" cy="46.8" r="2.44" fill="#CF9D7B" opacity="0.85"></circle>
  <line x1="49.0" y1="58.5" x2="41.4" y2="76.5" stroke="#724B39" stroke-width="0.45" opacity="0.55"></line>
    <circle cx="41.4" cy="76.5" r="2.41" fill="#CF9D7B" opacity="0.85"></circle>
  <line x1="49.1" y1="53.4" x2="42.3" y2="34.7" stroke="#724B39" stroke-width="0.45" opacity="0.55"></line>
    <circle cx="42.3" cy="34.7" r="2.39" fill="#CF9D7B" opacity="0.85"></circle>
  <line x1="52.4" y1="57.3" x2="70.4" y2="66.7" stroke="#724B39" stroke-width="0.45" opacity="0.55"></line>
    <circle cx="70.4" cy="66.7" r="2.37" fill="#CF9D7B" opacity="0.85"></circle>
  <line x1="47.3" y1="56.7" x2="27.3" y2="62.0" stroke="#724B39" stroke-width="0.45" opacity="0.55"></line>
    <circle cx="27.3" cy="62.0" r="2.35" fill="#CF9D7B" opacity="0.85"></circle>
  <line x1="51.5" y1="53.6" x2="62.9" y2="36.0" stroke="#724B39" stroke-width="0.45" opacity="0.55"></line>
    <circle cx="62.9" cy="36.0" r="2.33" fill="#CF9D7B" opacity="0.85"></circle>
  <line x1="50.5" y1="58.9" x2="54.1" y2="79.8" stroke="#724B39" stroke-width="0.45" opacity="0.55"></line>
    <circle cx="54.1" cy="79.8" r="2.31" fill="#CF9D7B" opacity="0.85"></circle>
  <line x1="47.7" y1="54.2" x2="30.6" y2="41.0" stroke="#724B39" stroke-width="0.45" opacity="0.55"></line>
    <circle cx="30.6" cy="41.0" r="2.29" fill="#CF9D7B" opacity="0.85"></circle>
  <line x1="53.0" y1="55.8" x2="74.8" y2="53.9" stroke="#724B39" stroke-width="0.45" opacity="0.55"></line>
    <circle cx="74.8" cy="53.9" r="2.27" fill="#CF9D7B" opacity="0.85"></circle>
  <line x1="47.9" y1="58.2" x2="32.8" y2="74.6" stroke="#724B39" stroke-width="0.45" opacity="0.55"></line>
    <circle cx="32.8" cy="74.6" r="2.25" fill="#CF9D7B" opacity="0.85"></circle>
  <line x1="50.0" y1="52.9" x2="50.1" y2="30.4" stroke="#724B39" stroke-width="0.45" opacity="0.55"></line>
    <circle cx="50.1" cy="30.4" r="2.23" fill="#CF9D7B" opacity="0.85"></circle>
  <line x1="52.1" y1="58.3" x2="67.5" y2="75.2" stroke="#724B39" stroke-width="0.45" opacity="0.55"></line>
    <circle cx="67.5" cy="75.2" r="2.21" fill="#CF9D7B" opacity="0.85"></circle>
  <line x1="46.9" y1="55.7" x2="23.8" y2="53.6" stroke="#724B39" stroke-width="0.45" opacity="0.55"></line>
    <circle cx="23.8" cy="53.6" r="2.20" fill="#CF9D7B" opacity="0.85"></circle>
  <line x1="52.5" y1="54.1" x2="71.2" y2="39.9" stroke="#724B39" stroke-width="0.45" opacity="0.55"></line>
    <circle cx="71.2" cy="39.9" r="2.18" fill="#CF9D7B" opacity="0.85"></circle>
  <line x1="49.4" y1="59.2" x2="45.2" y2="82.6" stroke="#724B39" stroke-width="0.45" opacity="0.55"></line>
    <circle cx="45.2" cy="82.6" r="2.16" fill="#CF9D7B" opacity="0.85"></circle>
  <line x1="48.3" y1="53.2" x2="35.4" y2="32.9" stroke="#724B39" stroke-width="0.45" opacity="0.55"></line>
    <circle cx="35.4" cy="32.9" r="2.14" fill="#CF9D7B" opacity="0.85"></circle>
  <line x1="53.2" y1="56.9" x2="76.7" y2="63.3" stroke="#724B39" stroke-width="0.45" opacity="0.55"></line>
    <circle cx="76.7" cy="63.3" r="2.12" fill="#CF9D7B" opacity="0.85"></circle>
  <line x1="47.0" y1="57.5" x2="25.1" y2="68.8" stroke="#724B39" stroke-width="0.45" opacity="0.55"></line>
    <circle cx="25.1" cy="68.8" r="2.11" fill="#CF9D7B" opacity="0.85"></circle>
  <line x1="51.2" y1="52.8" x2="59.8" y2="29.5" stroke="#724B39" stroke-width="0.45" opacity="0.55"></line>
    <circle cx="59.8" cy="29.5" r="2.09" fill="#CF9D7B" opacity="0.85"></circle>
  <line x1="51.3" y1="59.2" x2="60.8" y2="82.5" stroke="#724B39" stroke-width="0.45" opacity="0.55"></line>
    <circle cx="60.8" cy="82.5" r="2.07" fill="#CF9D7B" opacity="0.85"></circle>
  <line x1="46.9" y1="54.5" x2="23.9" y2="43.6" stroke="#724B39" stroke-width="0.45" opacity="0.55"></line>
    <circle cx="23.9" cy="43.6" r="2.06" fill="#CF9D7B" opacity="0.85"></circle>
  <line x1="53.4" y1="55.0" x2="77.9" y2="47.4" stroke="#724B39" stroke-width="0.45" opacity="0.55"></line>
    <circle cx="77.9" cy="47.4" r="2.04" fill="#CF9D7B" opacity="0.85"></circle>
  <line x1="48.2" y1="59.1" x2="35.1" y2="81.5" stroke="#724B39" stroke-width="0.45" opacity="0.55"></line>
    <circle cx="35.1" cy="81.5" r="2.02" fill="#CF9D7B" opacity="0.85"></circle>
  <line x1="49.2" y1="52.5" x2="43.7" y2="26.8" stroke="#724B39" stroke-width="0.45" opacity="0.55"></line>
    <circle cx="43.7" cy="26.8" r="2.01" fill="#CF9D7B" opacity="0.85"></circle>
  
  <g>
      <path d="M 65.6 28.6 Q 71.8 23.3 78 22" stroke="#CF9D7B" stroke-width="0.35" fill="none" opacity="0.4" stroke-dasharray="0.6 1.4"></path>
      <circle cx="78" cy="22" r="3" fill="#CF9D7B" opacity="0.9"></circle>
      <circle cx="78" cy="22" r="4.5" fill="#E8C4A3" opacity="0.18"></circle>
    </g>
  <g>
      <path d="M 74.4 21.8 Q 80.2 15.9 86 14" stroke="#CF9D7B" stroke-width="0.35" fill="none" opacity="0.4" stroke-dasharray="0.6 1.4"></path>
      <circle cx="86" cy="14" r="2.5" fill="#CF9D7B" opacity="0.9"></circle>
      <circle cx="86" cy="14" r="4" fill="#E8C4A3" opacity="0.18"></circle>
    </g>
  <g>
      <path d="M 76.5 33.9 Q 83.3 29.9 90 30" stroke="#CF9D7B" stroke-width="0.35" fill="none" opacity="0.4" stroke-dasharray="0.6 1.4"></path>
      <circle cx="90" cy="30" r="2" fill="#CF9D7B" opacity="0.9"></circle>
      <circle cx="90" cy="30" r="3.5" fill="#E8C4A3" opacity="0.18"></circle>
    </g>
  <g>
      <path d="M 61.6 19.4 Q 66.8 12.7 72 10" stroke="#CF9D7B" stroke-width="0.35" fill="none" opacity="0.4" stroke-dasharray="0.6 1.4"></path>
      <circle cx="72" cy="10" r="2.5" fill="#CF9D7B" opacity="0.9"></circle>
      <circle cx="72" cy="10" r="4" fill="#E8C4A3" opacity="0.18"></circle>
    </g>
  <g>
      <path d="M 81.1 43.9 Q 88.1 41.0 95 42" stroke="#CF9D7B" stroke-width="0.35" fill="none" opacity="0.4" stroke-dasharray="0.6 1.4"></path>
      <circle cx="95" cy="42" r="1.5" fill="#CF9D7B" opacity="0.9"></circle>
      <circle cx="95" cy="42" r="3" fill="#E8C4A3" opacity="0.18"></circle>
    </g>
  <g>
      <path d="M 55.4 17.0 Q 59.7 9.5 64 6" stroke="#CF9D7B" stroke-width="0.35" fill="none" opacity="0.4" stroke-dasharray="0.6 1.4"></path>
      <circle cx="64" cy="6" r="2" fill="#CF9D7B" opacity="0.9"></circle>
      <circle cx="64" cy="6" r="3.5" fill="#E8C4A3" opacity="0.18"></circle>
    </g>
  <g>
      <path d="M 69.0 43.2 Q 75.5 38.6 82 38" stroke="#CF9D7B" stroke-width="0.35" fill="none" opacity="0.4" stroke-dasharray="0.6 1.4"></path>
      <circle cx="82" cy="38" r="1.5" fill="#CF9D7B" opacity="0.9"></circle>
      <circle cx="82" cy="38" r="3" fill="#E8C4A3" opacity="0.18"></circle>
    </g>
  <g>
      <path d="M 85.9 29.0 Q 91.9 23.5 98 22" stroke="#CF9D7B" stroke-width="0.35" fill="none" opacity="0.4" stroke-dasharray="0.6 1.4"></path>
      <circle cx="98" cy="22" r="1.5" fill="#CF9D7B" opacity="0.9"></circle>
      <circle cx="98" cy="22" r="3" fill="#E8C4A3" opacity="0.18"></circle>
    </g>
</svg>