<svg xmlns="http://www.w3.org/2000/svg" viewBox="0 0 120 110" width="120" height="110">
  <g stroke="#F2E9DC" stroke-width="0.6" stroke-linecap="round" fill="none">
    <path d="M 60.0 48.0 Q 61.2 26.6 60.0 16.0"></path>
    <path d="M 61.0 48.1 Q 68.2 26.0 70.1 14.3"></path>
    <path d="M 62.0 48.5 Q 75.5 27.5 81.0 15.6"></path>
    <path d="M 62.8 49.2 Q 82.6 31.0 91.8 20.2"></path>
    <path d="M 63.5 50.0 Q 82.6 40.3 91.2 34.0"></path>
    <path d="M 63.9 51.0 Q 86.6 46.1 97.7 41.9"></path>
    <path d="M 64.0 52.0 Q 89.0 53.2 102.0 52.0"></path>
    <path d="M 63.9 53.0 Q 89.5 61.1 103.5 63.6"></path>
    <path d="M 63.5 54.0 Q 81.4 65.7 91.2 70.0"></path>
    <path d="M 62.8 54.8 Q 78.4 72.1 87.6 79.6"></path>
    <path d="M 62.0 55.5 Q 73.5 77.7 81.0 88.4"></path>
    <path d="M 61.0 55.9 Q 66.8 82.1 71.6 95.5"></path>
    <path d="M 60.0 56.0 Q 58.8 77.4 60.0 88.0"></path>
    <path d="M 59.0 55.9 Q 51.8 78.0 49.9 89.7"></path>
    <path d="M 58.0 55.5 Q 44.5 76.5 39.0 88.4"></path>
    <path d="M 57.2 54.8 Q 37.4 73.0 28.2 83.8"></path>
    <path d="M 56.5 54.0 Q 37.4 63.7 28.8 70.0"></path>
    <path d="M 56.1 53.0 Q 33.4 57.9 22.3 62.1"></path>
    <path d="M 56.0 52.0 Q 31.0 50.8 18.0 52.0"></path>
    <path d="M 56.1 51.0 Q 30.5 42.9 16.5 40.4"></path>
    <path d="M 56.5 50.0 Q 38.6 38.3 28.8 34.0"></path>
    <path d="M 57.2 49.2 Q 41.6 31.9 32.4 24.4"></path>
    <path d="M 58.0 48.5 Q 46.5 26.3 39.0 15.6"></path>
    <path d="M 59.0 48.1 Q 53.2 21.9 48.4 8.5"></path>
  </g>
  
  <g stroke="#F2E9DC" stroke-width="0.6" stroke-linecap="round" fill="none">
    <line x1="58.8" y1="16.0" x2="61.2" y2="16.0"></line>
    <line x1="68.9" y1="14.0" x2="71.3" y2="14.6"></line>
    <line x1="80.0" y1="15.0" x2="82.0" y2="16.2"></line>
    <line x1="91.0" y1="19.3" x2="92.7" y2="21.0"></line>
    <line x1="90.6" y1="33.0" x2="91.8" y2="35.0"></line>
    <line x1="97.4" y1="40.7" x2="98.0" y2="43.1"></line>
    <line x1="102.0" y1="50.8" x2="102.0" y2="53.2"></line>
    <line x1="103.8" y1="62.5" x2="103.2" y2="64.8"></line>
    <line x1="91.8" y1="69.0" x2="90.6" y2="71.0"></line>
    <line x1="88.4" y1="78.7" x2="86.7" y2="80.4"></line>
    <line x1="82.0" y1="87.8" x2="80.0" y2="89.0"></line>
    <line x1="72.8" y1="95.2" x2="70.5" y2="95.8"></line>
    <line x1="61.2" y1="88.0" x2="58.8" y2="88.0"></line>
    <line x1="51.1" y1="90.0" x2="48.7" y2="89.4"></line>
    <line x1="40.0" y1="89.0" x2="38.0" y2="87.8"></line>
    <line x1="29.0" y1="84.7" x2="27.3" y2="83.0"></line>
    <line x1="29.4" y1="71.0" x2="28.2" y2="69.0"></line>
    <line x1="22.6" y1="63.3" x2="22.0" y2="60.9"></line>
    <line x1="18.0" y1="53.2" x2="18.0" y2="50.8"></line>
    <line x1="16.2" y1="41.5" x2="16.8" y2="39.2"></line>
    <line x1="28.2" y1="35.0" x2="29.4" y2="33.0"></line>
    <line x1="31.6" y1="25.3" x2="33.3" y2="23.6"></line>
    <line x1="38.0" y1="16.2" x2="40.0" y2="15.0"></line>
    <line x1="47.2" y1="8.8" x2="49.5" y2="8.2"></line>
  </g>
  
  <circle cx="60" cy="52" r="2" fill="#F2E9DC"></circle>
  </svg>