<svg xmlns="http://www.w3.org/2000/svg" viewBox="0 0 1080 1080">
  <rect width="1080" height="1080" fill="#14100D"></rect>
  <g transform="translate(540 480) scale(7)">
    <g stroke="#F2E9DC" stroke-width="1.4" stroke-linecap="round">
      <line x1="0.00" y1="-4.00" x2="0.00" y2="-30.00"></line><line x1="2.00" y1="-3.46" x2="15.00" y2="-25.98"></line><line x1="3.46" y1="-2.00" x2="25.98" y2="-15.00"></line><line x1="4.00" y1="0.00" x2="30.00" y2="0.00"></line><line x1="3.46" y1="2.00" x2="25.98" y2="15.00"></line><line x1="2.00" y1="3.46" x2="15.00" y2="25.98"></line><line x1="0.00" y1="4.00" x2="0.00" y2="30.00"></line><line x1="-2.00" y1="3.46" x2="-15.00" y2="25.98"></line><line x1="-3.46" y1="2.00" x2="-25.98" y2="15.00"></line><line x1="-4.00" y1="0.00" x2="-30.00" y2="0.00"></line><line x1="-3.46" y1="-2.00" x2="-25.98" y2="-15.00"></line><line x1="-2.00" y1="-3.46" x2="-15.00" y2="-25.98"></line>
    </g>
    <g fill="#F2E9DC">
      <circle cx="0.00" cy="-30.00" r="2.6"></circle><circle cx="15.00" cy="-25.98" r="2.6"></circle><circle cx="25.98" cy="-15.00" r="2.6"></circle><circle cx="30.00" cy="0.00" r="2.6"></circle><circle cx="25.98" cy="15.00" r="2.6"></circle><circle cx="15.00" cy="25.98" r="2.6"></circle><circle cx="0.00" cy="30.00" r="2.6"></circle><circle cx="-15.00" cy="25.98" r="2.6"></circle><circle cx="-25.98" cy="15.00" r="2.6"></circle><circle cx="-30.00" cy="0.00" r="2.6"></circle><circle cx="-25.98" cy="-15.00" r="2.6"></circle><circle cx="-15.00" cy="-25.98" r="2.6"></circle>
    </g>
    <circle cx="0" cy="0" r="3.5" fill="#E8C4A3"></circle>
  </g>
  <text x="540" y="900" text-anchor="middle" font-family="Fraunces,Georgia,serif" font-weight="300" font-size="92" letter-spacing="-2" fill="#F2E9DC">HEIRL<tspan fill="#E8C4A3">O</tspan></text>
</svg>